<?xml version="1.0" encoding="UTF-8" standalone="no"?>
<!-- Created with Inkscape (http://www.inkscape.org/) -->

<svg
   width="550"
   height="101"
   viewBox="0 0 145.52083 26.722933"
   version="1.1"
   id="svg1"
   inkscape:version="1.3 (0e150ed6c4, 2023-07-21)"
   sodipodi:docname="Logo.svg"
   xml:space="preserve"
   xmlns:inkscape="http://www.inkscape.org/namespaces/inkscape"
   xmlns:sodipodi="http://sodipodi.sourceforge.net/DTD/sodipodi-0.dtd"
   xmlns="http://www.w3.org/2000/svg"
   xmlns:svg="http://www.w3.org/2000/svg"
   xmlns:rdf="http://www.w3.org/1999/02/22-rdf-syntax-ns#"
   xmlns:cc="http://creativecommons.org/ns#"
   xmlns:dc="http://purl.org/dc/elements/1.1/"><title
     id="title2">Logo - Kill/Switch</title><sodipodi:namedview
     id="namedview1"
     pagecolor="#ffffff"
     bordercolor="#666666"
     borderopacity="1.0"
     inkscape:showpageshadow="false"
     inkscape:pageopacity="0.0"
     inkscape:pagecheckerboard="true"
     inkscape:deskcolor="#d1d1d1"
     inkscape:document-units="px"
     showborder="true"
     inkscape:zoom="1.5581818"
     inkscape:cx="275"
     inkscape:cy="74.766628"
     inkscape:current-layer="layer1"
     showgrid="false" /><defs
     id="defs1" /><g
     inkscape:label="Text"
     inkscape:groupmode="layer"
     id="layer1"
     style="display:inline"
     transform="translate(0,-5.2916679)"><text
       xml:space="preserve"
       style="font-weight:bold;font-size:19.05px;line-height:1.25;font-family:'Open Sans';-inkscape-font-specification:'Open Sans Bold';font-variant-ligatures:none;writing-mode:lr-tb;fill:#000000;stroke-width:0.264583"
       x="76.872879"
       y="27.651508"
       id="text1"
       inkscape:label="SWITCH"><tspan
         sodipodi:role="line"
         id="tspan1"
         style="writing-mode:lr-tb;fill:#000000;stroke-width:0.264583"
         x="76.872879"
         y="27.651508"><tspan
           style="font-style:normal;font-variant:normal;font-weight:normal;font-stretch:normal;font-family:'VCR OSD Mono';-inkscape-font-specification:'VCR OSD Mono';fill:#000000"
           id="tspan2">SWITCH</tspan></tspan></text><text
       xml:space="preserve"
       style="font-style:normal;font-variant:normal;font-weight:normal;font-stretch:normal;font-size:26.4583px;line-height:1.25;font-family:DaisyWheel;-inkscape-font-specification:DaisyWheel;font-variant-ligatures:none;letter-spacing:0px;writing-mode:lr-tb;display:inline;fill:#000000;stroke-width:0.264583"
       x="2.789485"
       y="27.651508"
       id="text4"
       inkscape:label="KILL"><tspan
         sodipodi:role="line"
         id="tspan4"
         style="font-style:normal;font-variant:normal;font-weight:normal;font-stretch:normal;font-size:26.4583px;font-family:DaisyWheel;-inkscape-font-specification:DaisyWheel;letter-spacing:0px;writing-mode:lr-tb;fill:#000000;stroke-width:0.264583"
         x="2.789485"
         y="27.651508">KILL</tspan></text></g><g
     inkscape:groupmode="layer"
     id="layer2"
     inkscape:label="Text (Path)"
     transform="translate(0,-5.2916679)"><path
       d="M 14.752839,27.753805 H 11.47862 L 7.9160478,22.023923 6.6975182,22.898288 v 4.855517 H 3.8139745 V 14.154636 h 2.8835437 v 6.222876 l 1.1348146,-1.599903 3.6834942,-4.622973 h 3.199805 l -4.743896,6.018237 z m 10.134782,0 V 14.154636 h 2.883545 v 11.217919 h 5.515942 v 2.38125 z m 10.762133,0 V 14.154636 h 2.883544 v 11.217919 h 5.515943 v 2.38125 z"
       id="text5"
       style="font-weight:bold;font-size:19.05px;line-height:1.25;font-family:'Open Sans';-inkscape-font-specification:'Open Sans Bold';font-variant-ligatures:none;display:none;stroke-width:0.264583"
       inkscape:label="KILL"
       aria-label="KILL"
       sodipodi:nodetypes="cccccccccccccccccccccccccccc" /><g
       id="g10"
       inkscape:label="blood drop"
       style="display:none"
       transform="translate(5.2916679)"><circle
         style="fill:#ff0000;stroke-width:0.165;stroke-miterlimit:9.7"
         id="path9"
         cx="18.670347"
         cy="15.470437"
         r="0.91614735"
         inkscape:label="path9" /><path
         style="display:inline;fill:#ff0000;stroke:none;stroke-width:0.264583px;stroke-linecap:butt;stroke-linejoin:miter;stroke-opacity:1"
         d="m 17.266079,27.138486 c 0.790646,0.931135 2.903343,0.955322 3.664588,0 1.985482,-2.491676 -2.134001,-9.316724 -2.134001,-9.316724 0,0 -3.567644,6.917705 -1.530587,9.316724 z"
         id="path10"
         sodipodi:nodetypes="aaca" /></g><path
       d="m 75.967746,6.9075735 c -0.854333,0.5640755 -1.435378,1.1780443 -2.614077,2.7524297 -1.09711,1.4704468 -1.64771,2.2746168 -4.705966,6.9176218 -0.511057,0.773056 -1.69168,2.518958 -2.619108,3.882378 -0.93552,1.358748 -2.21767,3.261814 -2.869797,4.223149 -0.644038,0.966007 -1.593572,2.349031 -2.122981,3.079125 -0.904987,1.268487 -0.942361,1.333221 -0.860899,1.509721 0.11353,0.270539 1.036238,1.008257 1.501225,1.211983 0.628074,0.276306 0.686305,0.212825 1.4544,-1.285743 0.356642,-0.711161 1.457014,-2.654442 2.4275,-4.316674 0.970443,-1.662258 1.814826,-3.105992 1.875559,-3.211185 0.06073,-0.105193 0.24785,-0.223731 0.421869,-0.263519 0.272707,-0.07991 0.383823,-0.04812 0.950247,0.2789 0.501691,0.289651 0.690306,0.355392 0.831957,0.296917 0.149742,-0.0538 0.580464,-0.743773 2.310278,-3.758588 2.687569,-4.673608 3.503017,-6.403772 4.251869,-9.0462986 0.287327,-1.0209056 0.485734,-2.373663 0.360022,-2.510978 -0.04262,-0.05698 -0.305075,0.06122 -0.592132,0.2407411 z"
       id="path22"
       inkscape:label="knife"
       style="fill:#000000;stroke:#008000;stroke-width:0.309033;stroke-dasharray:none;paint-order:stroke fill markers" /></g><metadata
     id="metadata2"><rdf:RDF><cc:Work
         rdf:about=""><dc:title>Logo - Kill/Switch</dc:title></cc:Work></rdf:RDF></metadata></svg>
