<?xml version="1.0" encoding="UTF-8" standalone="no"?>
<!-- Created with Inkscape (http://www.inkscape.org/) -->

<svg
   width="550"
   height="101"
   viewBox="0 0 145.52083 26.722933"
   version="1.1"
   id="svg1"
   inkscape:version="1.3 (0e150ed6c4, 2023-07-21)"
   sodipodi:docname="Logo.svg"
   xml:space="preserve"
   inkscape:export-filename="Logo.png"
   inkscape:export-xdpi="24.25"
   inkscape:export-ydpi="24.25"
   xmlns:inkscape="http://www.inkscape.org/namespaces/inkscape"
   xmlns:sodipodi="http://sodipodi.sourceforge.net/DTD/sodipodi-0.dtd"
   xmlns="http://www.w3.org/2000/svg"
   xmlns:svg="http://www.w3.org/2000/svg"
   xmlns:rdf="http://www.w3.org/1999/02/22-rdf-syntax-ns#"
   xmlns:cc="http://creativecommons.org/ns#"
   xmlns:dc="http://purl.org/dc/elements/1.1/"><title
     id="title2">Logo - Kill/Switch</title><sodipodi:namedview
     id="namedview1"
     pagecolor="#ffffff"
     bordercolor="#666666"
     borderopacity="1.0"
     inkscape:showpageshadow="false"
     inkscape:pageopacity="0.0"
     inkscape:pagecheckerboard="true"
     inkscape:deskcolor="#d1d1d1"
     inkscape:document-units="px"
     showborder="true"
     inkscape:zoom="1.5672727"
     inkscape:cx="274.68097"
     inkscape:cy="50.725058"
     inkscape:current-layer="layer2"
     showgrid="false"
     showguides="true" /><defs
     id="defs1" /><g
     inkscape:label="Text"
     inkscape:groupmode="layer"
     id="layer1"
     style="display:none"
     transform="translate(0,-5.2916679)"><text
       xml:space="preserve"
       style="font-style:normal;font-variant:normal;font-weight:normal;font-stretch:normal;font-size:29.6333px;line-height:1.25;font-family:Squarewave;-inkscape-font-specification:Squarewave;font-variant-ligatures:none;writing-mode:lr-tb;fill:#000000;stroke:#ffffff;stroke-width:0.661459;stroke-dasharray:none;paint-order:stroke fill markers"
       x="78.989548"
       y="26.593174"
       id="text1"
       inkscape:label="SWITCH"><tspan
         sodipodi:role="line"
         id="tspan1"
         style="font-style:normal;font-variant:normal;font-weight:normal;font-stretch:normal;font-size:29.6333px;font-family:Squarewave;-inkscape-font-specification:Squarewave;writing-mode:lr-tb;fill:#000000;stroke:#ffffff;stroke-width:0.661459;stroke-dasharray:none;paint-order:stroke fill markers"
         x="78.989548"
         y="26.593174"><tspan
           style="font-style:normal;font-variant:normal;font-weight:normal;font-stretch:normal;font-size:29.6333px;font-family:Squarewave;-inkscape-font-specification:Squarewave;fill:#000000;stroke:#ffffff;stroke-width:0.661459;stroke-dasharray:none;paint-order:stroke fill markers"
           id="tspan2">SWITCH</tspan></tspan></text><text
       xml:space="preserve"
       style="font-style:normal;font-variant:normal;font-weight:normal;font-stretch:normal;font-size:23.2833px;line-height:1.25;font-family:'Underwood Champion';-inkscape-font-specification:'Underwood Champion';font-variant-ligatures:none;letter-spacing:0px;writing-mode:lr-tb;display:inline;fill:#000000;stroke-width:0.264583"
       x="2.789485"
       y="27.651508"
       id="text4"
       inkscape:label="KILL"><tspan
         sodipodi:role="line"
         id="tspan4"
         style="font-style:normal;font-variant:normal;font-weight:normal;font-stretch:normal;font-size:23.2833px;font-family:'Underwood Champion';-inkscape-font-specification:'Underwood Champion';letter-spacing:0px;writing-mode:lr-tb;fill:#000000;stroke-width:0.264583"
         x="2.789485"
         y="27.651508">KILL</tspan></text></g><g
     inkscape:groupmode="layer"
     id="layer2"
     inkscape:label="Text (Path)"
     transform="translate(0,-5.2916679)"
     style="display:inline"><g
       id="g10"
       inkscape:label="blood drop"
       style="display:none"
       transform="translate(5.2916679)"><circle
         style="fill:#ff0000;stroke-width:0.165;stroke-miterlimit:9.7"
         id="path9"
         cx="18.670347"
         cy="15.470437"
         r="0.91614735"
         inkscape:label="path9" /><path
         style="display:inline;fill:#ff0000;stroke:none;stroke-width:0.264583px;stroke-linecap:butt;stroke-linejoin:miter;stroke-opacity:1"
         d="m 17.266079,27.138486 c 0.790646,0.931135 2.903343,0.955322 3.664588,0 1.985482,-2.491676 -2.134001,-9.316724 -2.134001,-9.316724 0,0 -3.567644,6.917705 -1.530587,9.316724 z"
         id="path10"
         sodipodi:nodetypes="aaca" /></g><path
       d="m 86.92704,17.332767 v -1.852081 h -1.852081 -1.852082 -1.852081 v 1.852081 1.852082 h 1.852081 1.852082 1.852081 1.852081 v 1.852081 1.852081 1.852082 1.852081 H 86.92704 85.074959 83.222877 81.370796 79.518715 v -1.852081 -1.852082 h 1.852081 v 1.852082 h 1.852081 1.852082 1.852081 V 22.889011 21.03693 h -1.852081 -1.852082 -1.852081 -1.852081 v -1.852081 -1.852082 -1.852081 -1.852081 h 1.852081 1.852081 1.852082 1.852081 1.852081 v 1.852081 1.852081 z m 11.112488,9.260407 H 96.187446 94.335365 92.483284 90.631203 V 24.741093 22.889011 21.03693 19.184849 17.332767 15.480686 13.628605 h 1.852081 v 1.852081 1.852081 1.852082 1.852081 1.852081 1.852082 h 1.852081 V 22.889011 21.03693 19.184849 17.332767 15.480686 h 1.852081 v 1.852081 1.852082 1.852081 1.852081 1.852082 h 1.852082 V 22.889011 21.03693 19.184849 17.332767 15.480686 13.628605 h 1.852085 v 1.852081 1.852081 1.852082 1.852081 1.852081 1.852082 1.852081 z m 7.408332,0 h -1.85209 -1.85208 v -1.852081 h 1.85208 V 22.889011 21.03693 19.184849 17.332767 15.480686 h -1.85208 v -1.852081 h 1.85208 1.85209 1.85208 v 1.852081 h -1.85208 v 1.852081 1.852082 1.852081 1.852081 1.852082 h 1.85208 v 1.852081 z m 7.40832,0 V 24.741093 22.889011 21.03693 19.184849 17.332767 15.480686 h -1.85208 -1.85208 v -1.852081 h 1.85208 1.85208 1.85208 1.85208 1.85209 v 1.852081 h -1.85209 -1.85208 v 1.852081 1.852082 1.852081 1.852081 1.852082 1.852081 z m 14.81665,-9.260407 v -1.852081 h -1.85208 -1.85208 -1.85208 v 1.852081 1.852082 1.852081 1.852081 1.852082 h 1.85208 1.85208 1.85208 v -1.852082 h 1.85208 v 1.852082 1.852081 h -1.85208 -1.85208 -1.85208 -1.85208 -1.85208 V 24.741093 22.889011 21.03693 19.184849 17.332767 15.480686 13.628605 h 1.85208 1.85208 1.85208 1.85208 1.85208 v 1.852081 1.852081 z m 11.11249,9.260407 V 24.741093 22.889011 21.03693 h -1.85208 -1.85208 -1.85208 v 1.852081 1.852082 1.852081 h -1.85209 V 24.741093 22.889011 21.03693 19.184849 17.332767 15.480686 13.628605 h 1.85209 v 1.852081 1.852081 1.852082 h 1.85208 1.85208 1.85208 v -1.852082 -1.852081 -1.852081 h 1.85208 v 1.852081 1.852081 1.852082 1.852081 1.852081 1.852082 1.852081 z"
       id="text5"
       style="font-size:29.6333px;line-height:1.25;font-family:Squarewave;-inkscape-font-specification:Squarewave;font-variant-ligatures:none;display:inline;stroke:#ffffff;stroke-width:0.661459;paint-order:stroke fill markers"
       inkscape:label="SWITCH"
       aria-label="SWITCH" /><path
       d="m 22.230603,7.0112186 c 0.783853,-0.156771 1.34375,0.2519536 1.679689,1.2261728 -0.739061,1.209376 -1.399741,1.4165382 -1.982033,0.6214859 L 21.693102,7.951845 c 0.604688,0.167969 0.783856,-0.1455737 0.537501,-0.9406264 z"
       id="path6"
       style="font-size:23.2833px;line-height:1.25;font-family:'Underwood Champion';-inkscape-font-specification:'Underwood Champion';font-variant-ligatures:none;letter-spacing:0px;display:none;stroke-width:0.390909"
       inkscape:label="I dot"
       aria-label="KILL"
       sodipodi:nodetypes="ccccc" /><path
       d="M 12.441595,26.11672 V 25.45733 L 10.372474,22.71745 C 9.879826,21.231927 9.1711708,20.041992 8.2465085,19.147647 7.7083854,19.663032 7.2346854,20.15568 6.8254086,20.625591 l -0.1591632,1.432468 0.1364256,2.296498 -0.1591632,1.284674 c 0,0.447173 0.2576928,0.583598 0.7730784,0.409277 l 1.0459295,0.272851 0.079582,1.034561 c -0.045475,0.01516 -0.09095,0.03032 -0.1364256,0.04547 v 0.04547 C 7.7538607,27.659084 6.3289711,27.776565 4.1310033,27.799303 3.4034002,27.556768 3.0395986,27.355919 3.0395986,27.196756 v -0.432014 c 0,-0.04547 0.075792,-0.113686 0.2273759,-0.204638 0.2046384,-0.159163 0.7654992,-0.420646 1.6825823,-0.784448 l 0.1477944,-0.65939 V 24.820677 L 4.7903936,22.228591 4.9609256,20.659697 4.8131312,19.079434 4.9722944,17.79476 4.6653368,16.771568 4.995032,14.054425 C 5.0026112,12.909966 4.4303816,12.224048 3.2783433,11.996672 L 2.960017,11.701083 2.9713858,10.984849 c 0.030317,-0.121267 0.140215,-0.238745 0.3296951,-0.352433 0.1364256,-0.09853 0.3334848,-0.197059 0.5911776,-0.295589 l 1.5688942,0.488859 1.5802631,-0.386539 2.3533414,0.07958 0.3183264,0.295589 v 0.147794 c -0.2197968,0.318327 -0.4850688,0.57223 -0.7958159,0.76171 -0.5229648,0.371381 -1.174776,0.549492 -1.9554335,0.534333 l -0.2501136,0.329696 0.1364256,4.16098 v 0.28422 c -0.3183263,0.341064 -0.4774895,0.670759 -0.4774895,0.989086 v 0.147794 c 0,0.06821 0.064423,0.06442 0.1932696,-0.01137 C 6.7609854,18.014556 7.048995,17.768232 7.427955,17.419589 7.5871182,16.93452 8.0418702,16.438083 8.7922109,15.930277 9.0499036,15.187515 9.9480387,14.179481 11.486616,12.906176 V 12.474162 L 9.9063532,11.16675 v -0.136426 c 0,-0.121267 0.075792,-0.216007 0.2273758,-0.28422 0.113688,-0.113688 0.344854,-0.19327 0.693497,-0.238745 l 1.591632,0.136426 2.194178,-0.329695 h 0.954979 l 0.47749,0.432014 c -0.05305,0.03031 -0.102318,0.05684 -0.147795,0.07958 l 0.01137,0.01137 c -1.538577,0.864029 -2.26997,1.265726 -2.194178,1.205092 -0.166743,0.05305 -0.299379,0.109897 -0.397908,0.170532 -0.06821,0.05305 -0.102319,0.109897 -0.102319,0.170532 v 0.28422 c 0.318326,0.348643 0.409276,0.701076 0.272851,1.057299 v 0.147794 c 0,0.09853 -0.219797,0.291799 -0.65939,0.579809 -0.333485,0.227376 -0.833713,0.526754 -1.500682,0.898135 -0.939821,1.023192 -1.409731,1.853114 -1.409731,2.489767 0,0.310747 0.515386,0.94361 1.546157,1.898589 0.750341,2.08428 1.500681,3.759283 2.251022,5.025009 l 0.454752,0.886767 c 0.348643,0.485069 0.864029,0.727603 1.546156,0.727603 l 0.47749,0.579809 v 0.136425 c 0.113688,0.219797 0.06442,0.37896 -0.147794,0.47749 -0.121267,0.128846 -0.420646,0.193269 -0.898135,0.193269 H 11.64578 c -0.545702,0 -0.864028,-0.144005 -0.954979,-0.432014 v -0.28422 c 0,-0.113688 0.102319,-0.231166 0.306958,-0.352433 0.234955,-0.181901 0.716234,-0.37517 1.443837,-0.579809 z m 15.814,-15.745786 c 0.424435,0.65939 0.416855,1.182355 -0.02274,1.568894 l -1.989539,0.432014 -0.01137,0.272852 -1.22783,-0.170532 H 24.86769 l -0.818554,0.125056 -0.65939,-0.432014 H 23.25332 l -0.284219,0.261482 -0.02274,0.272852 c 0.879187,0.591177 1.314991,0.966348 1.307412,1.125511 l -0.47749,1.352887 0.341064,1.239199 c -0.03031,0.636653 -0.136422,0.954979 -0.318326,0.954979 l 0.04547,1.637107 -0.02274,0.409277 -0.272851,2.592086 0.898135,3.706228 0.522965,0.28422 1.523419,-0.37517 0.920873,0.511596 1.375625,-0.102319 c 0.530544,0.197059 0.792026,0.386539 0.784447,0.56844 l -0.01137,0.272851 c -0.01516,0.272851 -0.435806,0.488859 -1.261937,0.648022 -0.629073,-0.159163 -0.93982,-0.303168 -0.932241,-0.432015 -0.560861,0.386539 -1.205093,0.57223 -1.932696,0.557071 l -6.002726,-0.136425 -1.22783,0.113688 c -0.894346,-0.28801 -1.32636,-0.708656 -1.296043,-1.261937 0.197059,-0.409277 0.390328,-0.632863 0.579808,-0.670759 l 1.773533,0.03411 1.659845,-0.500227 0.522964,0.557071 h 0.261483 l 0.295589,-0.261482 0.102319,-2.046384 0.170532,-0.545702 -0.329695,-1.648476 0.113688,-2.046384 0.329695,-1.080036 -0.329695,-1.51205 0.272851,-2.592086 c 0.06822,-1.273309 -0.35242,-1.921332 -1.261924,-1.944069 L 18.887705,12.06489 C 18.08431,11.867827 17.690191,11.63287 17.70535,11.360019 l 0.02274,-0.409276 c 0.0076,-0.227376 0.19327,-0.360012 0.557071,-0.397908 l 1.637107,0.170532 2.330604,-0.216008 1.205093,0.432015 2.194178,-0.352433 1.216462,0.159163 z m 4.922691,-0.329695 h 0.409277 l 0.272851,0.272851 v 0.409277 l -0.272851,0.409276 v 0.409277 h 0.409277 c 0.28043,-0.636653 1.144459,-0.954979 2.592086,-0.954979 l 1.22783,-0.136426 c 0.545703,0.181901 0.818554,0.363802 0.818554,0.545703 v 0.409277 c 0,0.386539 -1.000454,0.704865 -3.001363,0.954979 l -0.136426,0.136425 v 0.136426 l -0.136425,4.035923 c -0.545703,0.0076 -0.818554,0.371382 -0.818554,1.091405 0.666969,0.227376 0.939821,0.769289 0.818554,1.625738 v 1.091405 l 0.136425,0.818554 -0.409277,2.182809 0.136426,2.455661 0.682128,0.272851 2.523873,-0.272851 h 0.136426 l 1.091405,0.272851 h 0.409276 c 0.462331,-0.03031 0.738972,-0.545699 0.829923,-1.546157 0.151584,0 0.28801,-0.818553 0.409277,-2.45566 0.303167,-0.272851 0.576018,-0.439594 0.818553,-0.500228 0.545703,0.18948 0.818554,0.553282 0.818554,1.091405 l -0.272852,0.818554 v 0.136425 l 0.409277,1.364256 v 0.818554 c 0,1.182355 -0.822343,1.773532 -2.467029,1.773532 h -0.682128 l -6.070939,-0.136425 -2.398816,0.216007 c -0.636653,-0.227376 -0.95498,-0.545702 -0.95498,-0.954979 0.545703,-0.909504 1.04593,-1.364256 1.500682,-1.364256 0.636653,0.583598 1.026981,0.693496 1.170986,0.329695 v -0.409277 c -0.272851,-0.333485 -0.409277,-0.651811 -0.409277,-0.954979 0.272851,0 0.409277,-0.181901 0.409277,-0.545702 h 0.136426 l -0.545703,-0.818554 v -0.136425 l 0.272852,-1.227831 -0.682128,-5.309229 c 0,-0.629073 0.136425,-1.311201 0.409276,-2.046384 0,-1.41731 -0.394118,-2.125965 -1.182355,-2.125965 -0.606336,0 -0.970137,-0.181901 -1.091404,-0.545702 V 11.54192 c 0,-0.591177 0.272851,-1.000454 0.818553,-1.22783 0.765499,0.181901 1.386994,0.09095 1.864483,-0.272851 z m 13.631188,0 h 0.409276 l 0.272852,0.272851 v 0.409277 l -0.272852,0.409276 v 0.409277 h 0.409277 c 0.280431,-0.636653 1.144459,-0.954979 2.592086,-0.954979 l 1.227831,-0.136426 c 0.545702,0.181901 0.818553,0.363802 0.818553,0.545703 v 0.409277 c 0,0.386539 -1.000454,0.704865 -3.001363,0.954979 l -0.136425,0.136425 v 0.136426 l -0.136426,4.035923 c -0.545702,0.0076 -0.818553,0.371382 -0.818553,1.091405 0.666969,0.227376 0.93982,0.769289 0.818553,1.625738 v 1.091405 l 0.136426,0.818554 -0.409277,2.182809 0.136425,2.455661 0.682128,0.272851 2.523874,-0.272851 h 0.136425 l 1.091405,0.272851 h 0.409277 c 0.462331,-0.03031 0.738972,-0.545699 0.829922,-1.546157 0.151584,0 0.28801,-0.818553 0.409277,-2.45566 0.303168,-0.272851 0.576019,-0.439594 0.818553,-0.500228 0.545703,0.18948 0.818554,0.553282 0.818554,1.091405 l -0.272851,0.818554 v 0.136425 l 0.409277,1.364256 v 0.818554 c 0,1.182355 -0.822343,1.773532 -2.46703,1.773532 H 53.56254 l -6.070938,-0.136425 -2.398817,0.216007 c -0.636653,-0.227376 -0.954979,-0.545702 -0.954979,-0.954979 0.545702,-0.909504 1.045929,-1.364256 1.500681,-1.364256 0.636653,0.583598 1.026982,0.693496 1.170987,0.329695 v -0.409277 c -0.272851,-0.333485 -0.409277,-0.651811 -0.409277,-0.954979 0.272851,0 0.409277,-0.181901 0.409277,-0.545702 h 0.136425 l -0.545702,-0.818554 v -0.136425 l 0.272851,-1.227831 -0.682128,-5.309229 c 0,-0.629073 0.136426,-1.311201 0.409277,-2.046384 0,-1.41731 -0.394118,-2.125965 -1.182355,-2.125965 -0.606336,0 -0.970138,-0.181901 -1.091405,-0.545702 V 11.54192 c 0,-0.591177 0.272851,-1.000454 0.818554,-1.22783 0.765499,0.181901 1.386993,0.09095 1.864483,-0.272851 z"
       id="text3"
       style="font-size:23.2833px;line-height:1.25;font-family:'Underwood Champion';-inkscape-font-specification:'Underwood Champion';font-variant-ligatures:none;letter-spacing:0px;display:inline;stroke-width:0.66145853;stroke:#ffffff;stroke-opacity:0.75;stroke-dasharray:none;paint-order:stroke fill markers"
       inkscape:label="KILL"
       aria-label="KILL"
       sodipodi:nodetypes="ccccccccccccccsscccccccccccccccccccccccccssccccccsccccccccccsccsccscccccccsscscsccccccccccccccccccccccccsccccccccccccccccccccccscccccccccccccccccssccccccccccccccccccccccsscccccccccccccccscscccccccccccssccccccccccccccccccccccsscccccccccccccccscscc" /></g><path
     d="m 75.967746,6.9075735 c -0.854333,0.5640755 -1.435378,1.1780443 -2.614077,2.7524297 -1.09711,1.4704468 -1.64771,2.2746168 -4.705966,6.9176218 -0.511057,0.773056 -1.69168,2.518958 -2.619108,3.882378 -0.93552,1.358748 -2.21767,3.261814 -2.869797,4.223149 -0.644038,0.966007 -1.593572,2.349031 -2.122981,3.079125 -0.904987,1.268487 -0.942361,1.333221 -0.860899,1.509721 0.11353,0.270539 1.036238,1.008257 1.501225,1.211983 0.628074,0.276306 0.686305,0.212825 1.4544,-1.285743 0.356642,-0.711161 1.457014,-2.654442 2.4275,-4.316674 0.970443,-1.662258 1.814826,-3.105992 1.875559,-3.211185 0.06073,-0.105193 0.24785,-0.223731 0.421869,-0.263519 0.272707,-0.07991 0.383823,-0.04812 0.950247,0.2789 0.501691,0.289651 0.690306,0.355392 0.831957,0.296917 0.149742,-0.0538 0.580464,-0.743773 2.310278,-3.758588 2.687569,-4.673608 3.503017,-6.403772 4.251869,-9.0462986 0.287327,-1.0209056 0.485734,-2.373663 0.360022,-2.510978 -0.04262,-0.05698 -0.305075,0.06122 -0.592132,0.2407411 z"
     id="path22"
     inkscape:label="knife"
     style="display:inline;fill:#000000;stroke:#008000;stroke-width:0.309033;stroke-dasharray:none;paint-order:stroke fill markers"
     transform="translate(0,-5.291668)" /><metadata
     id="metadata2"><rdf:RDF><cc:Work
         rdf:about=""><dc:title>Logo - Kill/Switch</dc:title></cc:Work></rdf:RDF></metadata></svg>
