<?xml version="1.0" encoding="UTF-8" standalone="no"?>
<!-- Created with Inkscape (http://www.inkscape.org/) -->

<svg
   width="550"
   height="101"
   viewBox="0 0 145.52083 26.722933"
   version="1.1"
   id="svg1"
   inkscape:version="1.3 (0e150ed6c4, 2023-07-21)"
   sodipodi:docname="Logo.svg"
   xml:space="preserve"
   inkscape:export-filename="Logo.png"
   inkscape:export-xdpi="24.25"
   inkscape:export-ydpi="24.25"
   xmlns:inkscape="http://www.inkscape.org/namespaces/inkscape"
   xmlns:sodipodi="http://sodipodi.sourceforge.net/DTD/sodipodi-0.dtd"
   xmlns="http://www.w3.org/2000/svg"
   xmlns:svg="http://www.w3.org/2000/svg"
   xmlns:rdf="http://www.w3.org/1999/02/22-rdf-syntax-ns#"
   xmlns:cc="http://creativecommons.org/ns#"
   xmlns:dc="http://purl.org/dc/elements/1.1/"><title
     id="title2">Logo - Kill/Switch</title><sodipodi:namedview
     id="namedview1"
     pagecolor="#ffffff"
     bordercolor="#666666"
     borderopacity="1.0"
     inkscape:showpageshadow="false"
     inkscape:pageopacity="0.0"
     inkscape:pagecheckerboard="true"
     inkscape:deskcolor="#d1d1d1"
     inkscape:document-units="px"
     showborder="true"
     inkscape:zoom="1.5581818"
     inkscape:cx="275.32089"
     inkscape:cy="74.766629"
     inkscape:current-layer="layer2"
     showgrid="false" /><defs
     id="defs1" /><g
     inkscape:label="Text"
     inkscape:groupmode="layer"
     id="layer1"
     style="display:none"
     transform="translate(0,-5.2916679)"><text
       xml:space="preserve"
       style="font-weight:bold;font-size:19.05px;line-height:1.25;font-family:'Open Sans';-inkscape-font-specification:'Open Sans Bold';font-variant-ligatures:none;writing-mode:lr-tb;fill:#000000;stroke-width:0.264583"
       x="76.872879"
       y="27.651508"
       id="text1"
       inkscape:label="SWITCH"><tspan
         sodipodi:role="line"
         id="tspan1"
         style="writing-mode:lr-tb;fill:#000000;stroke-width:0.264583"
         x="76.872879"
         y="27.651508"><tspan
           style="font-style:normal;font-variant:normal;font-weight:normal;font-stretch:normal;font-family:'VCR OSD Mono';-inkscape-font-specification:'VCR OSD Mono';fill:#000000"
           id="tspan2">SWITCH</tspan></tspan></text><text
       xml:space="preserve"
       style="font-style:normal;font-variant:normal;font-weight:normal;font-stretch:normal;font-size:26.4583px;line-height:1.25;font-family:DaisyWheel;-inkscape-font-specification:DaisyWheel;font-variant-ligatures:none;letter-spacing:0px;writing-mode:lr-tb;display:inline;fill:#000000;stroke-width:0.264583"
       x="2.789485"
       y="27.651508"
       id="text4"
       inkscape:label="KILL"><tspan
         sodipodi:role="line"
         id="tspan4"
         style="font-style:normal;font-variant:normal;font-weight:normal;font-stretch:normal;font-size:26.4583px;font-family:DaisyWheel;-inkscape-font-specification:DaisyWheel;letter-spacing:0px;writing-mode:lr-tb;fill:#000000;stroke-width:0.264583"
         x="2.789485"
         y="27.651508">KILL</tspan></text></g><g
     inkscape:groupmode="layer"
     id="layer2"
     inkscape:label="Text (Path)"
     transform="translate(0,-5.2916679)"><g
       id="g10"
       inkscape:label="blood drop"
       style="display:none"
       transform="translate(5.2916679)"><circle
         style="fill:#ff0000;stroke-width:0.165;stroke-miterlimit:9.7"
         id="path9"
         cx="18.670347"
         cy="15.470437"
         r="0.91614735"
         inkscape:label="path9" /><path
         style="display:inline;fill:#ff0000;stroke:none;stroke-width:0.264583px;stroke-linecap:butt;stroke-linejoin:miter;stroke-opacity:1"
         d="m 17.266079,27.138486 c 0.790646,0.931135 2.903343,0.955322 3.664588,0 1.985482,-2.491676 -2.134001,-9.316724 -2.134001,-9.316724 0,0 -3.567644,6.917705 -1.530587,9.316724 z"
         id="path10"
         sodipodi:nodetypes="aaca" /></g><path
       d="m 75.967746,6.9075735 c -0.854333,0.5640755 -1.435378,1.1780443 -2.614077,2.7524297 -1.09711,1.4704468 -1.64771,2.2746168 -4.705966,6.9176218 -0.511057,0.773056 -1.69168,2.518958 -2.619108,3.882378 -0.93552,1.358748 -2.21767,3.261814 -2.869797,4.223149 -0.644038,0.966007 -1.593572,2.349031 -2.122981,3.079125 -0.904987,1.268487 -0.942361,1.333221 -0.860899,1.509721 0.11353,0.270539 1.036238,1.008257 1.501225,1.211983 0.628074,0.276306 0.686305,0.212825 1.4544,-1.285743 0.356642,-0.711161 1.457014,-2.654442 2.4275,-4.316674 0.970443,-1.662258 1.814826,-3.105992 1.875559,-3.211185 0.06073,-0.105193 0.24785,-0.223731 0.421869,-0.263519 0.272707,-0.07991 0.383823,-0.04812 0.950247,0.2789 0.501691,0.289651 0.690306,0.355392 0.831957,0.296917 0.149742,-0.0538 0.580464,-0.743773 2.310278,-3.758588 2.687569,-4.673608 3.503017,-6.403772 4.251869,-9.0462986 0.287327,-1.0209056 0.485734,-2.373663 0.360022,-2.510978 -0.04262,-0.05698 -0.305075,0.06122 -0.592132,0.2407411 z"
       id="path22"
       inkscape:label="knife"
       style="fill:#000000;stroke:#008000;stroke-width:0.309033;stroke-dasharray:none;paint-order:stroke fill markers" /><path
       style="display:inline;font-size:19.05px;line-height:1.25;font-family:'VCR OSD Mono';-inkscape-font-specification:'VCR OSD Mono';font-variant-ligatures:none;stroke-width:0.56500017;stroke:#ffffff;stroke-dasharray:none;paint-order:stroke fill markers"
       d="m 86.174636,15.559224 h 0.930176 v 1.860351 h -1.860351 v -0.930176 h -0.930176 v -0.930175 h -3.720703 v 0.930175 h -0.930176 v 1.860352 h 0.930176 v 0.930176 h 4.650879 v 0.930175 h 0.930175 v 0.930176 h 0.930176 v 3.720703 h -0.930176 v 0.930176 h -0.930175 v 0.930176 H 79.663406 V 25.791157 H 78.733231 V 24.860981 H 77.803055 V 23.00063 h 1.860351 v 0.930175 h 0.930176 v 0.930176 h 3.720703 v -0.930176 h 0.930176 v -1.860351 h -0.930176 v -0.930176 h -4.650879 v -0.930176 h -0.930175 v -0.930175 h -0.930176 v -3.720703 h 0.930176 v -0.930176 h 0.930175 v -0.930176 h 5.581055 v 0.930176 h 0.930175 z m 2.790528,-1.860352 h 1.860352 v 10.231933 h 1.860351 v -4.650878 h 1.860352 v 4.650878 H 96.40657 V 13.698872 h 1.860352 v 11.162109 h -0.930176 v 0.930176 H 96.40657 v 0.930176 h -1.860351 v -0.930176 h -1.860352 v 0.930176 H 90.825516 V 25.791157 H 89.89534 v -0.930176 h -0.930176 z m 13.022466,13.022461 v -1.860352 h 1.86035 v -9.301757 h -1.86035 v -1.860352 h 5.58105 v 1.860352 h -1.86035 v 9.301757 h 1.86035 v 1.860352 z m 13.02246,-11.162109 h -3.72071 v -1.860352 h 9.30176 v 1.860352 h -3.7207 v 11.162109 h -1.86035 z m 10.23193,9.301757 h 3.7207 v -0.930176 h 0.93018 V 23.00063 h 1.86035 v 1.860351 h -0.93018 v 0.930176 h -0.93017 v 0.930176 h -5.58106 v -0.930176 h -0.93017 v -0.930176 h -0.93018 v -9.301757 h 0.93018 v -0.930176 h 0.93017 v -0.930176 h 5.58106 v 0.930176 h 0.93017 v 0.930176 h 0.93018 v 1.860351 h -1.86035 v -0.930176 h -0.93018 v -0.930175 h -3.7207 v 0.930175 h -0.93018 v 7.441406 h 0.93018 z m 10.23193,-3.720703 v 5.581055 H 133.6136 V 13.698872 h 1.86035 v 5.581055 h 5.58106 v -5.581055 h 1.86035 v 13.022461 h -1.86035 v -5.581055 z"
       id="text7"
       inkscape:label="SWITCH"
       aria-label="SWITCH" /><path
       d="m 13.964499,11.618916 0.478007,0.219624 0.258381,0.478007 0.03876,0.28422 -0.07752,0.297139 -0.258382,0.439249 -0.658873,0.723469 -0.762227,0.620116 -3.0230672,3.13934 -0.077514,0.478006 0.2196247,0.620116 1.27899,2.157489 1.240233,1.537372 0.258382,0.439249 2.079973,2.738847 0.28422,0.723469 -0.0646,0.297139 c -0.07752,0.14211 -0.206706,0.245463 -0.374654,0.322978 L 14.52002,27.173502 14.222881,27.070149 13.822389,26.811767 13.163516,26.036622 12.905134,25.63613 11.600305,24.21503 10.799322,22.93604 10.463425,22.574305 10.205044,22.135056 9.5461699,21.398668 9.3265453,20.933581 9.003568,20.597684 8.6030762,20.313464 8.0604744,20.119678 l -0.5167637,0.155029 -0.4004918,0.28422 -0.2971392,0.374654 -0.2196245,0.465087 -0.2454628,5.296828 -0.3358963,0.374653 -0.2583819,0.103353 -0.28422,-0.03876 -0.4004918,-0.28422 -0.2583819,-0.439249 -0.14211,-2.493385 0.025838,-0.620117 -0.064595,-0.620116 v -4.159947 l -0.077515,-0.29714 -0.038757,-2.519222 0.1162719,-0.904337 v -1.756996 l 0.2583818,-0.800984 0.5038446,-0.478006 0.4004918,0.03876 0.4392491,0.258382 0.2583819,0.439249 0.1808672,1.899106 -0.077515,0.465088 0.077515,0.620116 -0.077515,0.594278 0.2196245,0.620117 c 0.012919,0.180867 0.1033528,0.310058 0.2971392,0.400491 h 0.5038445 l 0.3746537,-0.400491 0.8009837,-0.581359 0.6976309,-0.697631 0.4004919,-0.258382 1.0593654,-1.020609 0.28422,-0.400491 1.13688,-0.917256 0.658874,-0.723469 0.400492,-0.297139 z m 9.921862,0.103352 0.503845,0.116272 0.555521,0.658874 0.180867,1.020608 -0.180867,6.356193 0.06459,0.542602 0.155029,0.439249 -0.116272,0.478007 0.07752,0.542601 -0.14211,0.775146 0.02584,0.103353 -0.06459,0.736388 0.103352,0.904336 -0.0646,2.079974 -0.219625,0.555521 -0.297139,0.28422 -0.542601,-0.0646 -0.374654,-0.219624 -0.219625,-0.400492 -0.103352,-0.478006 -0.116272,-2.118731 0.03876,-2.596738 0.155029,-1.020608 -0.258382,-4.302057 0.0646,-1.278991 V 13.25964 l 0.155029,-0.943093 0.219624,-0.413411 z m 10.826199,-0.103352 0.620116,0.219624 0.361735,0.503845 0.219624,0.620116 0.03876,0.775146 -0.14211,0.723469 -0.03876,4.573358 0.180867,1.059366 -0.297139,2.8422 0.258382,1.899106 c 0.05168,0.193787 0.155029,0.361735 0.297139,0.516764 l 0.620117,0.219625 4.198704,0.14211 1.098123,0.14211 c 0.167948,0.02584 0.361735,0.129191 0.581359,0.297139 l 0.180868,0.620116 -0.400492,0.478006 -0.620117,0.180868 -0.736388,0.103353 -2.958472,0.180867 -0.723469,-0.0646 -0.361734,0.02584 -1.214395,-0.0646 -1.304828,-0.361735 -0.413411,-0.439249 -0.28422,-0.555521 -0.07751,-3.798212 0.116272,-0.72347 -0.116272,-3.513993 0.07751,-0.465087 -0.07751,-0.594278 0.116272,-0.865579 -0.155029,-2.196246 0.03876,-1.718239 0.361735,-0.478006 z m 14.211002,0 0.620116,0.219624 0.361735,0.503845 0.219625,0.620116 0.03876,0.775146 -0.14211,0.723469 -0.03876,4.573358 0.180867,1.059366 -0.297139,2.8422 0.258382,1.899106 c 0.05168,0.193787 0.155029,0.361735 0.297139,0.516764 l 0.620116,0.219625 4.198705,0.14211 1.098123,0.14211 c 0.167948,0.02584 0.361734,0.129191 0.581359,0.297139 l 0.180867,0.620116 -0.400492,0.478006 -0.620116,0.180868 -0.736388,0.103353 -2.958472,0.180867 -0.72347,-0.0646 -0.361734,0.02584 -1.214395,-0.0646 -1.304828,-0.361735 -0.413411,-0.439249 -0.28422,-0.555521 -0.07751,-3.798212 0.116271,-0.72347 -0.116271,-3.513993 0.07751,-0.465087 -0.07751,-0.594278 0.116271,-0.865579 -0.155029,-2.196246 0.03876,-1.718239 0.361734,-0.478006 z"
       id="text8"
       style="display:inline;font-size:26.4583px;line-height:1.25;font-family:DaisyWheel;-inkscape-font-specification:DaisyWheel;font-variant-ligatures:none;letter-spacing:0px;stroke-width:0.56500017;stroke:#ffffff;stroke-dasharray:none;paint-order:stroke fill markers"
       inkscape:label="KILL"
       aria-label="KILL" /></g><metadata
     id="metadata2"><rdf:RDF><cc:Work
         rdf:about=""><dc:title>Logo - Kill/Switch</dc:title></cc:Work></rdf:RDF></metadata></svg>
